<svg xmlns="http://www.w3.org/2000/svg" viewBox="0 0 512 512" width="512" height="512">
  <defs>
    <linearGradient id="bg" x1="0%" y1="0%" x2="100%" y2="100%">
      <stop offset="0%" style="stop-color:#1e3a5f"/>
      <stop offset="100%" style="stop-color:#0f2744"/>
    </linearGradient>
    <filter id="shadow" x="-20%" y="-20%" width="140%" height="140%">
      <feDropShadow dx="0" dy="4" stdDeviation="8" flood-opacity="0.3"/>
    </filter>
  </defs>
  <rect width="512" height="512" rx="85" fill="url(#bg)"/>
  <!-- Shield -->
  <g filter="url(#shadow)">
    <path d="M256 60c-100 0-150 35-150 35v165c0 100 150 192 150 192s150-92 150-192V95s-50-35-150-35z" fill="#2563eb"/>
    <path d="M256 60c-100 0-150 35-150 35v165c0 100 150 192 150 192s150-92 150-192V95s-50-35-150-35z" fill="none" stroke="#60a5fa" stroke-width="6"/>
  </g>
  <!-- Check mark -->
  <path d="M180 260l55 55 95-110" fill="none" stroke="white" stroke-width="28" stroke-linecap="round" stroke-linejoin="round"/>
  <!-- MotorSafe text -->
  <text x="256" y="470" font-family="Arial Black, sans-serif" font-size="52" font-weight="900" fill="white" text-anchor="middle">MOTORSAFE</text>
</svg>
